<svg width="127" height="130" viewBox="0 0 127 130" fill="none" xmlns="http://www.w3.org/2000/svg">
<path d="M120.279 118.191C118.428 115.053 118.428 111.127 120.279 107.99C133.385 86.1767 126.738 57.6156 105.43 44.1992C100.719 41.2313 95.5157 39.1726 90.0798 38.1246C88.3283 28.4053 83.5871 19.5114 76.5506 12.7444C67.2524 3.63727 54.5836 -0.944228 41.761 0.162615C16.8197 2.16275 -1.81326 24.4794 0.140649 50.0109C0.705464 57.4087 2.99746 64.5588 6.82367 70.8622C8.67488 73.9999 8.67488 77.926 6.82367 81.0637L2.62588 88.2357C1.77432 89.7042 2.24835 91.6022 3.68283 92.4709C4.14793 92.7522 4.6795 92.9036 5.22299 92.9036H37.3549C42.0962 114.608 60.9283 130.028 82.6537 130H121.792C123.459 130 124.812 128.615 124.812 126.908C124.812 126.355 124.667 125.808 124.389 125.332L120.279 118.191ZM10.505 86.7211L11.9546 84.2172C14.9685 79.1134 14.9685 72.7204 11.9546 67.6166C0.590615 48.7126 6.34964 23.9599 24.8134 12.3272C43.2771 0.69458 67.4607 6.58657 78.8247 25.4903C82.7325 31.9884 84.7497 39.491 84.644 47.1205C83.9222 69.3661 65.9808 86.9529 44.2376 86.7211H10.505ZM82.7717 123.817C64.3169 123.926 48.1454 111.192 43.5128 92.9038H44.2376C69.2727 93.1171 89.8988 72.8316 90.6839 47.2132C90.6839 46.3166 90.6839 45.4203 90.6839 44.5237C111.793 49.5965 124.887 71.2238 119.932 92.8325C118.968 97.0306 117.353 101.04 115.145 104.713C112.131 109.817 112.131 116.209 115.145 121.313L116.595 123.817L82.7717 123.817Z" fill="white" fill-opacity="0.87"/>
</svg>
